<?xml version="1.0" encoding="UTF-8"?>
<svg id="Layer_1" data-name="Layer 1" xmlns="http://www.w3.org/2000/svg" viewBox="0 0 116.13 173.27">
  <defs>
    <style>
      .cls-1 {
        fill: #696969;
      }

      .cls-2 {
        fill: #efe7e1;
      }

      .cls-3 {
        fill: #c1b49a;
      }

      .cls-4 {
        fill: #231f20;
      }

      .cls-5 {
        fill: #454140;
      }

      .cls-6 {
        fill: #9a8479;
      }

      .cls-7 {
        fill: #836e5e;
      }

      .cls-8 {
        fill: #fff;
        font-family: Fredoka-Medium, Fredoka;
        font-size: 5.97px;
        font-weight: 500;
      }
    </style>
  </defs>
  <path class="cls-1" d="m112.14,112.13c-2.65-6.65-6.5-12.27-11.54-16.86-5.05-4.59-11.19-8.11-18.45-10.55-7.24-2.44-15.47-3.66-24.66-3.66s-17.01,1.2-24.09,3.58c-7.09,2.37-13.09,5.86-18.03,10.46-4.92,4.59-8.69,10.18-11.3,16.78-2.6,6.59-3.9,14.03-3.9,22.34l-.17,34.06c0,.99.2,1.88.58,2.65.39.78.95,1.36,1.66,1.74.72.39,1.64.59,2.74.59h106c.99,0,1.88-.2,2.65-.59.77-.38,1.38-.94,1.83-1.66.44-.71.67-1.57.67-2.57v-33.72c0-8.42-1.33-15.95-3.99-22.6Zm-5.97,51.34H10.13v-29.08c0-9.08,1.91-16.86,5.73-23.34,3.83-6.48,9.34-11.43,16.53-14.87,7.2-3.43,15.84-5.15,25.92-5.15,9.97,0,18.52,1.72,25.67,5.15,7.14,3.44,12.62,8.37,16.44,14.79,3.83,6.43,5.74,14.18,5.74,23.26v29.24Z"/>
  <path class="cls-1" d="m106.16,134.23v29.24H10.13v-29.08c0-9.08,1.91-16.86,5.73-23.34,3.83-6.48,9.34-11.43,16.53-14.87,7.2-3.43,15.84-5.15,25.92-5.15,9.97,0,18.52,1.72,25.67,5.15,7.14,3.44,12.62,8.37,16.44,14.79,3.83,6.43,5.74,14.18,5.74,23.26Z"/>
  <g id="Phil_Belly" data-name="Phil Belly">
    <path class="cls-3" d="m110.43,109.03c-2.57-6.44-6.3-11.89-11.18-16.34-4.89-4.45-10.84-7.86-17.88-10.22-7.02-2.36-14.99-3.55-23.9-3.55s-16.48,1.16-23.35,3.47c-6.87,2.3-12.69,5.68-17.47,10.14-4.77,4.45-8.42,9.87-10.95,16.26-2.52,6.39-3.78,13.6-3.78,21.65l-.16,33.01c0,.96.19,1.82.56,2.57.38.76.92,1.32,1.61,1.69.7.38,1.59.57,2.66.57h102.72c.96,0,1.82-.19,2.57-.57.75-.37,1.34-.91,1.77-1.61.43-.69.65-1.52.65-2.49v-32.68c0-8.16-1.29-15.46-3.87-21.9Zm-5.79,49.75H11.58v-28.18c0-8.8,1.85-16.34,5.55-22.62,3.71-6.28,9.05-11.08,16.02-14.41,6.98-3.32,15.35-4.99,25.12-4.99s17.95,1.67,24.88,4.99c6.92,3.33,12.23,8.11,15.93,14.33,3.71,6.23,5.56,13.74,5.56,22.54v28.34Z"/>
    <path class="cls-6" d="m104.64,130.44v28.34H11.58v-28.18c0-8.8,1.85-16.34,5.55-22.62,3.71-6.28,9.05-11.08,16.02-14.41,6.98-3.32,15.35-4.99,25.12-4.99s17.95,1.67,24.88,4.99c6.92,3.33,12.23,8.11,15.93,14.33,3.71,6.23,5.56,13.74,5.56,22.54Z"/>
  </g>
  <g>
    <path class="cls-1" d="m86.36,34.85c0,.08.03.15.07.23l4.52,8.06c.05.09.1.15.16.19.06.03.13.05.2.05.07,0,.15-.03.23-.07l2.58-1.47c.63-.35,1.14-.77,1.53-1.24.39-.48.66-1,.79-1.57.14-.57.15-1.18.03-1.81-.12-.64-.38-1.3-.75-1.98-.39-.7-.83-1.28-1.33-1.72-.49-.45-1.02-.77-1.58-.95-.57-.19-1.16-.24-1.78-.16-.62.08-1.24.3-1.88.66l-2.57,1.43c-.07.04-.13.1-.17.16-.03.06-.05.13-.05.21Zm1.02.17l2.23-1.24c.69-.38,1.36-.57,2.01-.55.66.01,1.26.22,1.83.61.57.4,1.06.97,1.49,1.74.43.76.66,1.49.71,2.19.04.7-.1,1.32-.43,1.89-.32.57-.84,1.05-1.53,1.43l-2.21,1.24-4.09-7.3Z"/>
    <path class="cls-1" d="m87.38,35.02l4.09,7.3,2.21-1.24c.7-.38,1.21-.86,1.53-1.43.33-.56.47-1.19.43-1.89-.05-.7-.28-1.43-.71-2.19-.43-.76-.92-1.34-1.49-1.74-.56-.4-1.17-.6-1.83-.61-.65-.02-1.32.17-2.01.55l-2.23,1.24Z"/>
  </g>
  <g>
    <path class="cls-1" d="m25.25,34.98c-.04-.06-.09-.12-.17-.16l-2.57-1.43c-.64-.36-1.27-.58-1.88-.66-.62-.07-1.21-.02-1.78.16-.56.19-1.09.51-1.58.95-.5.45-.94,1.02-1.33,1.72-.38.68-.63,1.34-.75,1.98-.12.64-.11,1.24.03,1.81.14.57.4,1.09.79,1.57.39.48.9.89,1.53,1.24l2.58,1.47c.08.04.16.06.23.07.08,0,.15-.01.2-.05.06-.04.12-.1.16-.19l4.52-8.06c.05-.07.07-.15.07-.23s-.01-.15-.05-.21Zm-5.06,7.68l-2.21-1.24c-.7-.38-1.21-.86-1.53-1.43-.33-.56-.47-1.19-.43-1.89.05-.7.28-1.43.71-2.19.43-.76.92-1.34,1.49-1.74.56-.4,1.17-.6,1.83-.61.65-.02,1.32.17,2.01.55l2.23,1.24-4.09,7.3Z"/>
    <path class="cls-1" d="m24.28,35.37l-4.09,7.3-2.21-1.24c-.7-.38-1.21-.86-1.53-1.43-.33-.56-.47-1.19-.43-1.89.05-.7.28-1.43.71-2.19.43-.76.92-1.34,1.49-1.74.56-.4,1.17-.6,1.83-.61.65-.02,1.32.17,2.01.55l2.23,1.24Z"/>
  </g>
  <g>
    <path class="cls-1" d="m94.6,47.26c-.67-2.61-1.44-4.77-2.3-6.45-.86-1.68-1.48-2.86-1.85-3.53-.52-.9-1.14-1.78-1.85-2.63s-1.48-1.37-2.3-1.52c-.38-.08-.73-.1-1.04-.09-.04,0-.08,0-.13,0H27.12s-.03,0-.06,0c-.19,0-.4.01-.63.05-.06.01-.13.02-.18.03-.03,0-.07,0-.1.01-.82.15-1.59.66-2.3,1.52-.71.86-1.32,1.74-1.85,2.63-.45.68-1.09,1.83-1.91,3.48-.82,1.64-1.59,3.78-2.3,6.4-.71,2.62-1.07,5.8-1.07,9.53.08,4.42.73,8.57,1.97,12.46,1.23,3.89,2.99,7.44,5.27,10.66,2.29,3.22,5,5.99,8.14,8.3,3.14,2.32,6.69,4.12,10.66,5.39,3.97,1.28,8.23,1.91,12.8,1.91,4.63,0,8.99-.63,13.07-1.91,4.08-1.27,7.79-3.07,11.11-5.39,3.33-2.31,6.17-5.08,8.53-8.3,2.36-3.21,4.17-6.77,5.44-10.66,1.27-3.89,1.9-8.04,1.9-12.46,0-3.66-.33-6.8-1.01-9.42Zm-8.19,22.39c-1.57,3.85-3.8,7.2-6.68,10.04-2.88,2.84-6.32,5.05-10.32,6.62-4,1.57-8.43,2.36-13.3,2.36s-9.28-.79-13.24-2.36c-3.97-1.58-7.39-3.78-10.27-6.62-2.88-2.84-5.1-6.19-6.68-10.04-1.57-3.85-2.36-8.02-2.36-12.51,0-3.14.33-5.89,1.01-8.24.68-2.36,1.39-4.29,2.13-5.78.75-1.49,1.27-2.47,1.57-2.91.47-.75.92-1.37,1.33-1.86h53.22c.4.49.82,1.12,1.22,1.86.22.45.73,1.42,1.51,2.91.79,1.5,1.52,3.42,2.19,5.78.68,2.36,1.01,5.1,1.01,8.24,0,4.49-.79,8.66-2.36,12.51Z"/>
    <path class="cls-1" d="m88.77,57.13c0,4.49-.79,8.66-2.36,12.51-1.57,3.85-3.8,7.2-6.68,10.04-2.88,2.84-6.32,5.05-10.32,6.62-4,1.57-8.43,2.36-13.3,2.36s-9.28-.79-13.24-2.36c-3.97-1.58-7.39-3.78-10.27-6.62-2.88-2.84-5.1-6.19-6.68-10.04-1.57-3.85-2.36-8.02-2.36-12.51,0-3.14.33-5.89,1.01-8.24.68-2.36,1.39-4.29,2.13-5.78.75-1.49,1.27-2.47,1.57-2.91.47-.75.92-1.37,1.33-1.86h53.22c.4.49.82,1.12,1.22,1.86.22.45.73,1.42,1.51,2.91.79,1.5,1.52,3.42,2.19,5.78.68,2.36,1.01,5.1,1.01,8.24Z"/>
  </g>
  <g id="Teeth">
    <path class="cls-1" d="m60.92,68.93c-.1-.13-.22-.22-.37-.26s-.32-.06-.51-.06h-8.84c-.19,0-.36.02-.51.05s-.28.12-.38.26c-.09.13-.14.34-.14.6v4.28c0,.46.08.89.25,1.28.16.4.4.74.7,1.04.3.3.65.53,1.05.69.4.17.83.25,1.3.26.34,0,.67-.04.99-.13.32-.09.61-.22.88-.4.27-.18.5-.38.69-.62.16.17.35.32.56.44.21.12.44.21.68.26.25.06.49.08.74.08.55,0,1.05-.13,1.51-.39.46-.26.83-.62,1.11-1.08.28-.46.42-.99.42-1.6v-4.11c0-.28-.04-.48-.14-.62Zm-1.71,4.32c0,.59-.11,1.01-.32,1.25-.22.25-.56.37-1.02.37-.3,0-.53-.05-.68-.14-.16-.1-.27-.22-.34-.36-.07-.15-.11-.3-.11-.46-.01-.16-.02-.31-.02-.44v-.7c0-.28-.06-.49-.18-.62-.12-.14-.32-.2-.6-.2-.3,0-.51.07-.65.19-.13.13-.19.32-.19.59v.72c0,.13,0,.28-.01.44,0,.16-.02.31-.07.47-.04.16-.11.31-.22.44-.1.13-.25.23-.43.31-.19.08-.43.11-.72.11-.38,0-.69-.07-.93-.2-.24-.13-.42-.32-.53-.55-.11-.23-.17-.5-.17-.8v-3.16h7.19v2.76Z"/>
    <path class="cls-1" d="m59.21,70.49v2.76c0,.59-.11,1.01-.32,1.25-.22.25-.56.37-1.02.37-.3,0-.53-.05-.68-.14-.16-.1-.27-.22-.34-.36-.07-.15-.11-.3-.11-.46-.01-.16-.02-.31-.02-.44v-.7c0-.28-.06-.49-.18-.62-.12-.14-.32-.2-.6-.2-.3,0-.51.07-.65.19-.13.13-.19.32-.19.59v.72c0,.13,0,.28-.01.44,0,.16-.02.31-.07.47-.04.16-.11.31-.22.44-.1.13-.25.23-.43.31-.19.08-.43.11-.72.11-.38,0-.69-.07-.93-.2-.24-.13-.42-.32-.53-.55-.11-.23-.17-.5-.17-.8v-3.16h7.19Z"/>
  </g>
  <path class="cls-1" d="m56.72,73.62c0,.12-.01.24-.04.36-.03.12-.1.21-.21.28s-.3.11-.55.11-.42-.04-.53-.11c-.11-.07-.18-.17-.21-.28-.03-.12-.05-.23-.05-.35v-3.54c0-.12.02-.24.05-.36.03-.11.1-.21.21-.28.11-.07.29-.11.55-.11s.43.04.54.11.18.16.21.28c.03.11.04.24.04.37v3.51Z"/>
  <path class="cls-1" d="m64.11,65.71c0,.57-.15,1.08-.45,1.55-.3.46-.72.87-1.27,1.21-.54.34-1.17.64-1.88.88s-1.48.42-2.31.53c-.83.12-1.67.17-2.53.17s-1.7-.06-2.53-.17c-.83-.11-1.6-.29-2.33-.53s-1.36-.53-1.91-.87-.98-.75-1.3-1.22c-.31-.47-.47-1-.47-1.58,0-.18.02-.34.06-.47.04-.13.13-.24.25-.32.13-.08.32-.12.59-.12s.48.04.61.11c.13.07.21.17.24.3.04.13.05.27.05.43v.09c0,.39.25.76.76,1.12.51.36,1.25.66,2.24.88.98.22,2.21.34,3.69.34.99,0,1.89-.06,2.71-.17s1.52-.28,2.11-.49c.59-.21,1.05-.46,1.38-.75.33-.29.49-.6.49-.94,0-.18.02-.34.05-.47.04-.13.12-.24.24-.32.13-.08.33-.12.61-.12s.48.04.61.13.21.2.24.33c.03.14.05.29.05.46Z"/>
  <g>
    <path class="cls-1" d="m86.11,47.54c-.39-.66-.92-1.19-1.57-1.57-.66-.39-1.4-.58-2.21-.58-.59,0-1.16.11-1.69.34-.52.23-.99.54-1.4.95s-.72.88-.95,1.41c-.24.53-.35,1.1-.35,1.71,0,.64.13,1.22.38,1.76.25.53.58.99,1.01,1.39.42.39.9.7,1.42.91.53.22,1.07.32,1.63.32s1.07-.1,1.58-.31c.52-.21.98-.51,1.4-.9.42-.39.75-.84.99-1.39.24-.54.36-1.14.36-1.79,0-.83-.2-1.58-.59-2.24Zm-1.81,3.47c-.22.35-.51.64-.87.82s-.72.28-1.1.28-.76-.09-1.12-.28c-.35-.19-.64-.46-.85-.81-.22-.35-.33-.77-.33-1.26s.1-.83.3-1.19c.21-.35.48-.63.82-.83.35-.2.74-.3,1.17-.3s.84.09,1.2.29c.34.2.62.47.82.82.2.34.3.74.3,1.19s-.11.92-.34,1.27Z"/>
    <path class="cls-1" d="m84.64,49.74c0,.49-.11.92-.34,1.27-.22.35-.51.64-.87.82s-.72.28-1.1.28-.76-.09-1.12-.28c-.35-.19-.64-.46-.85-.81-.22-.35-.33-.77-.33-1.26s.1-.83.3-1.19c.21-.35.48-.63.82-.83.35-.2.74-.3,1.17-.3s.84.09,1.2.29c.34.2.62.47.82.82.2.34.3.74.3,1.19Z"/>
  </g>
  <g>
    <path class="cls-1" d="m33.47,47.54c-.39-.66-.92-1.19-1.57-1.57-.66-.39-1.4-.58-2.21-.58-.59,0-1.16.11-1.69.34-.52.23-.99.54-1.4.95s-.72.88-.95,1.41c-.24.53-.35,1.1-.35,1.71s.13,1.22.38,1.76c.25.53.58.99,1.01,1.39.42.39.9.7,1.42.91.53.22,1.07.32,1.63.32s1.07-.1,1.58-.31c.52-.21.98-.51,1.4-.9.42-.39.75-.84.99-1.39.24-.54.36-1.14.36-1.79,0-.83-.2-1.58-.59-2.24Zm-1.81,3.47c-.22.35-.51.64-.87.82s-.72.28-1.1.28-.76-.09-1.12-.28c-.35-.19-.64-.46-.85-.81-.22-.35-.33-.77-.33-1.26,0-.44.1-.83.3-1.19.21-.35.48-.63.82-.83.35-.2.74-.3,1.17-.3s.84.09,1.2.29c.34.2.62.47.82.82.2.34.3.74.3,1.19,0,.49-.11.92-.34,1.27Z"/>
    <path class="cls-1" d="m32,49.74c0,.49-.11.92-.34,1.27-.22.35-.51.64-.87.82s-.72.28-1.1.28-.76-.09-1.12-.28c-.35-.19-.64-.46-.85-.81-.22-.35-.33-.77-.33-1.26,0-.44.1-.83.3-1.19.21-.35.48-.63.82-.83.35-.2.74-.3,1.17-.3s.84.09,1.2.29c.34.2.62.47.82.82.2.34.3.74.3,1.19Z"/>
  </g>
  <path class="cls-1" d="m61.17,58.1c-.08-.13-.19-.2-.31-.23-.13-.03-.26-.04-.39-.04h-9.17c-.13,0-.26.01-.4.04-.13.03-.24.1-.31.23-.08.13-.13.34-.13.64,0,.05,0,.08.01.13-.03.21.05.45.24.72l4.06,6.09v3.85c0,.22.02.41.06.59.04.17.14.3.29.4.15.1.4.15.75.15s.59-.05.75-.15c.15-.1.26-.24.3-.4s.06-.35.06-.55v-3.9s4.04-6.11,4.04-6.11c.2-.28.28-.53.25-.74,0-.03,0-.06,0-.08,0-.31-.04-.53-.12-.66Zm-5.32,5.46l-2.48-3.93h5s-2.52,3.93-2.52,3.93Z"/>
  <polygon class="cls-1" points="58.37 59.63 55.85 63.57 53.36 59.63 58.37 59.63"/>
  <path class="cls-1" d="m33.25,33.82c-.49,0-.88-.06-1.17-.17-.29-.11-.5-.31-.63-.6-.13-.29-.2-.68-.2-1.17,0-.53.06-.95.17-1.23.11-.29.31-.5.6-.63.29-.13.66-.2,1.1-.2h43.78c.49,0,.87.07,1.13.2s.46.34.57.63c.11.29.17.7.17,1.23,0,.49-.07.88-.2,1.17-.13.29-.35.49-.63.6-.29.11-.68.17-1.17.17h-43.52Z"/>
  <g>
    <path class="cls-1" d="m72.19,9.81c-.84-2.1-2.06-3.88-3.65-5.32-1.59-1.46-3.53-2.56-5.83-3.34C60.42.38,57.83,0,54.92,0s-5.37.38-7.61,1.13c-2.24.75-4.14,1.85-5.7,3.3-1.55,1.46-2.75,3.22-3.57,5.3-.82,2.08-1.23,4.43-1.23,7.06l-.05,10.76c0,.31.06.6.18.84.13.24.3.43.52.55.23.12.52.18.87.18h33.49c.31,0,.6-.06.84-.18.24-.13.43-.3.57-.53.14-.22.22-.49.22-.81v-10.66c0-2.66-.43-5.04-1.26-7.14Zm-1.89,16.23h-30.35v-9.19c0-2.87.61-5.33,1.81-7.38,1.21-2.04,2.95-3.61,5.22-4.7,2.28-1.08,5.01-1.62,8.19-1.62s5.85.54,8.11,1.62c2.26,1.09,3.99,2.64,5.2,4.67,1.21,2.04,1.81,4.48,1.81,7.35v9.24Z"/>
    <path class="cls-1" d="m70.31,16.8v9.24h-30.35v-9.19c0-2.87.61-5.33,1.81-7.38,1.21-2.04,2.95-3.61,5.22-4.7,2.28-1.08,5.01-1.62,8.19-1.62s5.85.54,8.11,1.62c2.26,1.09,3.99,2.64,5.2,4.67,1.21,2.04,1.81,4.48,1.81,7.35Z"/>
  </g>
  <path class="cls-1" d="m77.89,77.23c-.15-.05-.27-.1-.34-.16-.08-.06-.12-.14-.13-.23-.01-.09,0-.21.05-.35.05-.15.1-.26.17-.33.06-.07.15-.11.25-.12.1,0,.22,0,.36.05.44.14.89.09,1.36-.15.46-.24.93-.65,1.39-1.22.47-.57.91-1.3,1.35-2.19.43-.89.84-1.92,1.21-3.09.49-1.56.8-2.94.92-4.14.12-1.2.06-2.18-.18-2.93-.24-.75-.65-1.22-1.23-1.41l-.09-.03c-.13-.04-.22-.09-.28-.15s-.1-.14-.1-.23c0-.09.01-.21.06-.35s.1-.24.16-.31c.06-.07.15-.11.25-.12.1,0,.22,0,.36.05.49.16.91.44,1.25.84.34.41.6.91.77,1.52.17.61.27,1.31.28,2.1.01.79-.06,1.66-.22,2.6-.16.94-.4,1.93-.74,2.98s-.7,1.97-1.1,2.83c-.41.85-.85,1.6-1.31,2.23-.46.64-.94,1.15-1.44,1.55-.49.4-.99.66-1.5.79-.51.13-1,.12-1.49-.04Z"/>
  <path class="cls-1" d="m31.85,77.26c-.51-.13-1-.4-1.5-.79-.49-.4-.97-.91-1.44-1.55-.46-.64-.9-1.38-1.31-2.23-.41-.85-.78-1.8-1.1-2.83-.33-1.04-.58-2.04-.74-2.98-.16-.94-.23-1.81-.22-2.6.01-.79.1-1.49.28-2.1.17-.61.43-1.12.77-1.52.34-.41.76-.69,1.25-.84.14-.04.26-.06.36-.05.1,0,.18.05.25.12.06.07.12.17.16.31s.06.25.06.35c0,.09-.04.17-.1.23s-.16.11-.28.15l-.09.03c-.58.18-.99.65-1.23,1.41-.24.75-.3,1.73-.18,2.93.12,1.2.42,2.58.92,4.14.37,1.17.77,2.2,1.21,3.09.43.89.88,1.62,1.35,2.19.47.57.93.98,1.39,1.22.46.24.92.29,1.36.15.14-.04.26-.06.36-.05.1,0,.18.05.25.12.06.07.12.18.17.33.04.14.06.25.05.35-.01.09-.06.17-.13.23-.08.06-.19.11-.34.16-.49.16-.99.17-1.49.04Z"/>
  <g>
    <path class="cls-1" d="m57.03,97.42c-.03-.06-.06-.11-.11-.15-.02-.02-.05-.04-.08-.06l-7.18-4.9c-.11-.08-.21-.14-.29-.19-.09-.04-.17-.05-.26-.02-.09.03-.19.11-.29.25-.07.09-.13.19-.17.26-.02.02-.02.04-.03.06-.02.03-.02.05-.03.08-.01.03-.01.07-.01.1,0,.03.02.06.03.09.03.09.11.17.23.25l.62.41,6.15,4.07-6.15,4.07-.62.41c-.12.08-.2.16-.23.24-.01.03-.02.05-.02.08,0,.04,0,.07,0,.1s.02.06.03.09c0,0,0,.01.01.02.04.1.1.21.19.32.09.11.18.18.26.22.08.03.17.03.26,0,.1-.04.21-.09.32-.17l7.18-4.9s.06-.04.08-.07c.05-.05.09-.1.11-.15.03-.08.05-.16.05-.25,0-.08-.02-.16-.05-.25Z"/>
    <g>
      <path class="cls-1" d="m49.42,92.66c-.03-.06-.07-.11-.13-.14-.06-.03-.14-.05-.25-.05-.12,0-.21.02-.27.04-.06.02-.1.05-.12.09-.01.01-.02.02-.02.03s-.01.02-.01.03c-.02.03-.02.05-.03.08s-.01.06-.01.1v9.59s0,.03,0,.04c0,.04,0,.07,0,.1.01.04.02.08.04.11.03.06.07.11.14.13.06.03.15.04.27.04.11,0,.19-.01.25-.04.07-.03.11-.08.13-.14s.04-.15.04-.26v-9.5c0-.1-.01-.19-.04-.25Z"/>
      <polygon class="cls-1" points="55.6 97.67 49.45 101.75 49.45 93.6 55.6 97.67"/>
    </g>
    <path class="cls-1" d="m56.35,97.68c0,.08.02.16.05.25.03.05.06.1.11.15.02.03.05.05.08.07l7.18,4.9c.12.08.23.14.32.17.09.03.18.03.26,0,.08-.04.17-.11.26-.22.09-.11.15-.22.19-.32,0,0,.01-.01.01-.02.01-.03.02-.06.03-.09s.01-.06,0-.1c0-.03-.01-.06-.02-.08-.03-.08-.11-.16-.23-.24l-.62-.41-6.15-4.07,6.15-4.07.62-.41c.12-.08.2-.16.23-.25.01-.03.02-.06.03-.09,0-.03,0-.07-.01-.1,0-.03-.01-.06-.03-.08-.01-.02-.02-.04-.03-.06-.04-.08-.1-.17-.17-.26-.11-.13-.21-.22-.29-.25-.09-.03-.17-.02-.26.02-.09.04-.19.1-.29.19l-7.18,4.9s-.06.04-.08.06c-.05.04-.09.09-.11.15-.03.09-.05.17-.05.25Z"/>
    <g>
      <path class="cls-1" d="m63.98,92.93v9.5c0,.11.01.2.04.26s.07.11.13.14c.06.03.14.04.25.04.12,0,.21-.01.27-.04.07-.02.11-.07.14-.13.02-.03.03-.07.04-.11,0-.03.01-.06,0-.1,0-.01,0-.03,0-.04v-9.59s0-.07-.01-.1-.01-.06-.03-.08c0-.01,0-.02-.01-.03s-.01-.02-.02-.03c-.02-.05-.06-.08-.12-.09-.06-.03-.15-.04-.27-.04-.11,0-.19.02-.25.05-.07.03-.11.08-.13.14s-.04.15-.04.25Z"/>
      <polygon class="cls-1" points="57.83 97.68 63.98 101.76 63.98 93.61 57.83 97.68"/>
    </g>
    <path class="cls-1" d="m56.69,100.61c-1.22,0-2.06-.24-2.53-.7-.47-.47-.7-1.28-.7-2.44,0-.83.1-1.48.29-1.95.19-.47.54-.81,1.04-1.04.5-.22,1.13-.33,1.9-.33,1.21,0,2.06.24,2.53.7.47.47.7,1.31.7,2.53,0,.83-.1,1.48-.29,1.95-.19.47-.53.8-.99.99-.47.19-1.12.29-1.95.29Z"/>
  </g>
  <g id="Ear_Right" data-name="Ear Right">
    <path class="cls-7" d="m85.4,33.87c0,.07.03.15.07.22l4.38,7.81c.04.09.09.14.16.18.06.03.12.05.2.05.07,0,.14-.03.22-.06l2.5-1.42c.61-.34,1.1-.74,1.48-1.2.38-.47.64-.97.77-1.53.14-.55.14-1.14.03-1.76-.12-.62-.36-1.26-.73-1.92-.38-.68-.81-1.24-1.29-1.67-.48-.43-.99-.74-1.53-.92-.55-.18-1.13-.23-1.72-.16-.6.08-1.2.29-1.83.64l-2.49,1.39c-.07.04-.12.09-.16.16-.03.06-.05.13-.05.2Zm.99.17l2.16-1.21c.67-.37,1.32-.56,1.94-.53.64.01,1.23.21,1.77.6.55.39,1.03.94,1.44,1.68.42.74.64,1.45.69,2.12.04.67-.1,1.28-.42,1.83-.31.55-.81,1.01-1.48,1.39l-2.14,1.2-3.97-7.07Z"/>
    <path class="cls-5" d="m86.38,34.03l3.97,7.07,2.14-1.2c.67-.37,1.17-.83,1.48-1.39.32-.55.46-1.15.42-1.83-.05-.67-.27-1.38-.69-2.12-.42-.74-.89-1.29-1.44-1.68-.54-.38-1.13-.58-1.77-.6-.63-.02-1.28.16-1.94.53l-2.16,1.21Z"/>
  </g>
  <g id="Ear_Left" data-name="Ear Left">
    <path class="cls-7" d="m26.17,34c-.04-.06-.09-.11-.16-.16l-2.49-1.39c-.62-.35-1.23-.57-1.83-.64-.6-.07-1.18-.02-1.72.16-.54.18-1.05.49-1.53.92-.48.43-.91.99-1.29,1.67-.37.66-.61,1.3-.73,1.92-.11.62-.11,1.21.03,1.76.13.55.39,1.06.77,1.53.38.46.88.86,1.48,1.2l2.5,1.42c.08.04.15.06.22.06.07,0,.14-.01.2-.05.06-.04.11-.1.16-.18l4.38-7.81c.04-.07.07-.15.07-.22s-.01-.14-.05-.2Zm-4.91,7.45l-2.14-1.2c-.67-.37-1.17-.83-1.48-1.39-.32-.55-.46-1.15-.42-1.83.05-.67.27-1.38.69-2.12.42-.74.89-1.29,1.44-1.68.54-.38,1.13-.58,1.77-.6.63-.02,1.28.16,1.94.53l2.16,1.21-3.97,7.07Z"/>
    <path class="cls-5" d="m25.23,34.37l-3.97,7.07-2.14-1.2c-.67-.37-1.17-.83-1.48-1.39-.32-.55-.46-1.15-.42-1.83.05-.67.27-1.38.69-2.12.42-.74.89-1.29,1.44-1.68.54-.38,1.13-.58,1.77-.6.63-.02,1.28.16,1.94.53l2.16,1.21Z"/>
  </g>
  <g id="Phil_Head" data-name="Phil Head">
    <path class="cls-6" d="m93.38,45.89c-.65-2.53-1.39-4.62-2.23-6.25-.83-1.63-1.43-2.77-1.79-3.42-.51-.87-1.11-1.72-1.8-2.55s-1.43-1.32-2.23-1.47c-.37-.07-.71-.1-1.01-.09-.04,0-.08,0-.12,0H27.99s-.03,0-.05,0c-.18,0-.39.01-.61.05-.06.01-.12.02-.18.03-.03,0-.07,0-.1.01-.8.15-1.54.64-2.23,1.47-.69.83-1.28,1.68-1.79,2.55-.44.66-1.05,1.78-1.85,3.37-.8,1.59-1.54,3.66-2.23,6.2-.69,2.54-1.03,5.62-1.03,9.24.07,4.28.71,8.31,1.9,12.08,1.2,3.77,2.9,7.21,5.11,10.33,2.22,3.12,4.84,5.8,7.89,8.04,3.04,2.25,6.48,3.99,10.33,5.22,3.84,1.24,7.98,1.85,12.4,1.85s8.71-.61,12.66-1.85c3.95-1.23,7.54-2.97,10.77-5.22,3.23-2.24,5.98-4.92,8.27-8.04,2.28-3.11,4.04-6.56,5.27-10.33,1.23-3.77,1.84-7.79,1.84-12.08,0-3.55-.32-6.59-.98-9.13Zm-7.94,21.69c-1.52,3.74-3.68,6.98-6.47,9.73-2.79,2.76-6.13,4.89-10,6.42-3.88,1.52-8.17,2.28-12.89,2.28s-8.99-.76-12.83-2.28c-3.84-1.53-7.16-3.66-9.95-6.42-2.79-2.76-4.94-6-6.47-9.73-1.52-3.74-2.28-7.77-2.28-12.12,0-3.05.32-5.71.98-7.99.66-2.29,1.34-4.15,2.07-5.61.72-1.45,1.23-2.39,1.52-2.82.46-.72.89-1.32,1.29-1.8h51.57c.39.48.79,1.08,1.18,1.8.22.43.71,1.38,1.47,2.82.76,1.45,1.47,3.32,2.12,5.61.66,2.28.98,4.94.98,7.99,0,4.35-.76,8.39-2.28,12.12Z"/>
    <path class="cls-6" d="m87.73,55.46c0,4.35-.76,8.39-2.28,12.12-1.52,3.74-3.68,6.98-6.47,9.73-2.79,2.76-6.13,4.89-10,6.42-3.88,1.52-8.17,2.28-12.89,2.28s-8.99-.76-12.83-2.28c-3.84-1.53-7.16-3.66-9.95-6.42-2.79-2.76-4.94-6-6.47-9.73-1.52-3.74-2.28-7.77-2.28-12.12,0-3.05.32-5.71.98-7.99.66-2.29,1.34-4.15,2.07-5.61.72-1.45,1.23-2.39,1.52-2.82.46-.72.89-1.32,1.29-1.8h51.57c.39.48.79,1.08,1.18,1.8.22.43.71,1.38,1.47,2.82.76,1.45,1.47,3.32,2.12,5.61.66,2.28.98,4.94.98,7.99Z"/>
  </g>
  <g id="Teeth-2" data-name="Teeth">
    <path class="cls-4" d="m60.75,66.89c-.09-.13-.21-.21-.35-.25s-.31-.06-.49-.06h-8.56c-.19,0-.35.02-.5.05s-.27.12-.37.25c-.09.13-.13.32-.13.59v4.15c0,.45.08.86.24,1.24.16.38.38.72.68,1,.29.29.63.51,1.02.67.39.16.81.24,1.26.26.33,0,.65-.04.96-.13.31-.09.59-.21.85-.38.26-.17.48-.37.67-.6.16.17.34.31.54.43.2.12.42.2.66.26.24.06.48.08.72.08.53,0,1.02-.12,1.47-.38.45-.25.81-.6,1.08-1.04.27-.45.41-.96.41-1.55v-3.98c0-.27-.04-.47-.13-.6Zm-1.66,4.19c0,.57-.1.97-.31,1.21-.21.24-.54.35-.99.35-.29,0-.51-.05-.66-.13-.15-.09-.26-.21-.32-.35-.06-.15-.1-.29-.11-.45-.01-.16-.02-.3-.02-.43v-.68c0-.27-.06-.48-.17-.6-.12-.13-.31-.2-.58-.2-.29,0-.5.06-.63.18-.13.12-.19.31-.19.57v.7c0,.13,0,.27-.01.42,0,.15-.02.3-.06.46-.04.16-.11.3-.21.42-.1.12-.24.23-.41.3-.18.08-.41.11-.7.11-.37,0-.67-.06-.91-.2-.23-.13-.41-.31-.52-.53-.11-.23-.16-.49-.16-.78v-3.06h6.97v2.67Z"/>
    <path class="cls-2" d="m59.09,68.41v2.67c0,.57-.1.97-.31,1.21-.21.24-.54.35-.99.35-.29,0-.51-.05-.66-.13-.15-.09-.26-.21-.32-.35-.06-.15-.1-.29-.11-.45-.01-.16-.02-.3-.02-.43v-.68c0-.27-.06-.48-.17-.6-.12-.13-.31-.2-.58-.2-.29,0-.5.06-.63.18-.13.12-.19.31-.19.57v.7c0,.13,0,.27-.01.42,0,.15-.02.3-.06.46-.04.16-.11.3-.21.42-.1.12-.24.23-.41.3-.18.08-.41.11-.7.11-.37,0-.67-.06-.91-.2-.23-.13-.41-.31-.52-.53-.11-.23-.16-.49-.16-.78v-3.06h6.97Z"/>
  </g>
  <path class="cls-4" d="m56.67,71.45c0,.12-.01.24-.04.35-.03.11-.1.21-.21.28s-.29.1-.54.1-.41-.03-.52-.1c-.11-.07-.17-.16-.21-.28-.03-.11-.05-.23-.05-.34v-3.43c0-.12.02-.23.05-.34.03-.11.1-.2.21-.27.11-.07.28-.1.53-.1s.41.03.52.1.18.16.21.27c.03.11.04.23.04.36v3.4Z"/>
  <path class="cls-4" d="m63.83,63.78c0,.55-.15,1.05-.44,1.5-.29.45-.7.84-1.23,1.18-.53.33-1.14.62-1.83.85s-1.44.41-2.24.52c-.8.11-1.62.17-2.45.17s-1.65-.06-2.45-.17c-.8-.11-1.55-.28-2.26-.51s-1.32-.51-1.85-.84-.95-.73-1.26-1.19c-.3-.46-.46-.97-.46-1.53,0-.18.02-.33.06-.46.04-.13.12-.23.25-.31.12-.08.31-.11.57-.11s.47.03.59.1c.12.07.2.17.24.29.04.12.05.26.05.41v.09c0,.38.25.74.74,1.09.49.35,1.21.64,2.17.85.95.22,2.15.33,3.57.33.96,0,1.84-.06,2.63-.17s1.47-.27,2.05-.47c.57-.2,1.02-.45,1.33-.73.32-.28.47-.59.47-.91,0-.18.02-.33.05-.46.03-.13.11-.23.24-.31.12-.08.32-.11.59-.11s.47.04.59.12.2.19.23.32c.03.14.04.28.04.45Z"/>
  <g id="Eyes">
    <g>
      <path class="cls-4" d="m85.15,46.17c-.37-.64-.89-1.15-1.53-1.53-.64-.37-1.35-.57-2.14-.57-.58,0-1.12.11-1.64.33-.51.22-.96.53-1.35.92s-.7.85-.92,1.36c-.23.52-.34,1.07-.34,1.66,0,.62.12,1.18.36,1.71.24.52.57.96.98,1.34.4.37.87.68,1.37.88.52.21,1.04.31,1.58.31s1.04-.1,1.54-.3c.51-.2.95-.5,1.35-.87.4-.37.73-.82.96-1.34.23-.53.35-1.1.35-1.74,0-.81-.19-1.54-.58-2.17Zm-1.76,3.36c-.21.34-.5.62-.84.8s-.7.27-1.07.27-.74-.09-1.08-.27c-.34-.18-.62-.44-.83-.79-.21-.34-.32-.75-.32-1.22,0-.42.1-.81.29-1.15.2-.34.46-.61.8-.81.34-.19.72-.29,1.13-.29s.82.09,1.16.28c.33.19.6.45.8.8.19.33.29.72.29,1.15,0,.47-.11.89-.33,1.23Z"/>
      <path class="cls-4" d="m83.73,48.3c0,.47-.11.89-.33,1.23-.21.34-.5.62-.84.8s-.7.27-1.07.27-.74-.09-1.08-.27c-.34-.18-.62-.44-.83-.79-.21-.34-.32-.75-.32-1.22,0-.42.1-.81.29-1.15.2-.34.46-.61.8-.81.34-.19.72-.29,1.13-.29s.82.09,1.16.28c.33.19.6.45.8.8.19.33.29.72.29,1.15Z"/>
    </g>
    <g>
      <path class="cls-4" d="m34.14,46.17c-.37-.64-.89-1.15-1.53-1.53-.64-.37-1.35-.57-2.14-.57-.58,0-1.12.11-1.64.33-.51.22-.96.53-1.35.92s-.7.85-.92,1.36c-.23.52-.34,1.07-.34,1.66,0,.62.12,1.18.36,1.71.24.52.57.96.98,1.34.4.37.87.68,1.37.88.52.21,1.04.31,1.58.31s1.04-.1,1.54-.3c.51-.2.95-.5,1.35-.87.4-.37.73-.82.96-1.34.23-.53.35-1.1.35-1.74,0-.81-.19-1.54-.58-2.17Zm-1.76,3.36c-.21.34-.5.62-.84.8s-.7.27-1.07.27-.74-.09-1.08-.27c-.34-.18-.62-.44-.83-.79-.21-.34-.32-.75-.32-1.22,0-.42.1-.81.29-1.15.2-.34.46-.61.8-.81.34-.19.72-.29,1.13-.29s.82.09,1.16.28c.33.19.6.45.8.8.19.33.29.72.29,1.15,0,.47-.11.89-.33,1.23Z"/>
      <path class="cls-4" d="m32.71,48.3c0,.47-.11.89-.33,1.23-.21.34-.5.62-.84.8s-.7.27-1.07.27-.74-.09-1.08-.27c-.34-.18-.62-.44-.83-.79-.21-.34-.32-.75-.32-1.22,0-.42.1-.81.29-1.15.2-.34.46-.61.8-.81.34-.19.72-.29,1.13-.29s.82.09,1.16.28c.33.19.6.45.8.8.19.33.29.72.29,1.15Z"/>
    </g>
  </g>
  <path class="cls-4" d="m60.99,56.4c-.08-.12-.18-.2-.3-.22-.12-.03-.25-.04-.38-.04h-8.89c-.13,0-.26.01-.38.04-.12.03-.23.1-.3.22-.08.12-.12.33-.12.62,0,.05,0,.08.01.13-.03.2.05.43.24.7l3.94,5.9v3.74c0,.22.02.4.06.57.04.16.14.29.28.39.15.1.39.15.73.15s.57-.05.72-.15c.15-.1.25-.23.29-.38s.06-.34.06-.53v-3.78l3.92-5.92c.19-.27.27-.51.24-.72,0-.03,0-.05,0-.08,0-.3-.04-.51-.11-.63Zm-5.16,5.3l-2.4-3.81h4.85s-2.45,3.81-2.45,3.81Z"/>
  <polygon class="cls-4" points="58.27 57.89 55.83 61.7 53.42 57.89 58.27 57.89"/>
  <path class="cls-4" d="m33.93,32.87c-.47,0-.85-.05-1.13-.16-.28-.11-.49-.3-.61-.58-.13-.28-.19-.66-.19-1.13,0-.52.05-.92.16-1.2.11-.28.3-.49.58-.61.28-.13.64-.19,1.07-.19h42.43c.47,0,.84.06,1.1.19s.44.33.55.61c.11.28.16.68.16,1.2,0,.47-.07.85-.19,1.13-.13.28-.33.47-.61.58-.28.11-.66.16-1.13.16h-42.17Z"/>
  <g>
    <path class="cls-4" d="m71.67,9.61c-.82-2.03-1.99-3.76-3.54-5.16-1.54-1.41-3.42-2.49-5.65-3.24-2.22-.74-4.73-1.11-7.55-1.11s-5.21.36-7.38,1.09c-2.17.73-4.01,1.8-5.52,3.2-1.51,1.41-2.66,3.12-3.46,5.14-.8,2.02-1.2,4.3-1.2,6.84l-.05,10.43c0,.3.06.58.18.82.12.24.29.41.51.53.22.11.51.18.84.18h32.45c.3,0,.58-.06.82-.18.24-.12.42-.29.55-.51.14-.22.21-.48.21-.78v-10.33c0-2.58-.41-4.88-1.22-6.92Zm-1.83,15.72h-29.41v-8.9c0-2.78.59-5.17,1.76-7.15,1.17-1.98,2.86-3.5,5.06-4.55,2.21-1.05,4.86-1.57,7.94-1.57s5.67.53,7.86,1.57c2.19,1.05,3.87,2.56,5.04,4.53,1.17,1.97,1.76,4.34,1.76,7.13v8.96Z"/>
    <path class="cls-4" d="m69.84,16.37v8.96h-29.41v-8.9c0-2.78.59-5.17,1.76-7.15,1.17-1.98,2.86-3.5,5.06-4.55,2.21-1.05,4.86-1.57,7.94-1.57s5.67.53,7.86,1.57c2.19,1.05,3.87,2.56,5.04,4.53,1.17,1.97,1.76,4.34,1.76,7.13Z"/>
  </g>
  <path class="cls-4" d="m77.19,74.94c-.15-.05-.26-.1-.33-.16-.08-.06-.12-.13-.13-.22-.01-.09,0-.2.05-.34.05-.15.1-.25.16-.32.06-.07.14-.11.24-.12.1,0,.21,0,.35.05.43.14.87.09,1.31-.15.45-.23.9-.63,1.35-1.18.45-.55.89-1.26,1.31-2.12.42-.86.81-1.86,1.17-2.99.48-1.51.78-2.85.89-4.02.11-1.16.06-2.11-.18-2.84-.23-.73-.63-1.19-1.19-1.36l-.09-.03c-.12-.04-.21-.09-.28-.15s-.1-.13-.1-.22c0-.09.01-.2.06-.33s.09-.23.16-.3c.06-.07.14-.11.24-.12.1,0,.21,0,.35.05.48.15.88.42,1.21.82.33.39.58.89.75,1.48.17.59.26,1.27.27,2.04.01.77-.06,1.61-.21,2.52-.15.91-.39,1.87-.71,2.88s-.67,1.91-1.07,2.74c-.4.83-.82,1.55-1.27,2.16-.45.62-.91,1.12-1.39,1.5-.48.39-.96.64-1.45.77-.49.13-.97.11-1.45-.04Z"/>
  <path class="cls-4" d="m32.57,74.97c-.49-.13-.97-.38-1.45-.77-.48-.39-.94-.89-1.39-1.5-.45-.62-.87-1.34-1.27-2.16-.4-.83-.75-1.74-1.07-2.74s-.56-1.97-.71-2.88c-.15-.91-.23-1.75-.21-2.52.01-.77.1-1.45.27-2.04.17-.59.42-1.08.75-1.48.33-.39.74-.67,1.21-.82.13-.04.25-.06.35-.05.1,0,.18.05.24.12.06.07.11.17.16.3s.06.25.06.33c0,.09-.04.16-.1.22s-.15.11-.28.15l-.09.03c-.56.18-.96.63-1.19,1.36-.23.73-.29,1.68-.18,2.84.11,1.16.41,2.5.89,4.02.36,1.13.75,2.13,1.17,2.99.42.86.86,1.57,1.31,2.12.45.55.9.95,1.35,1.18.45.23.89.28,1.31.15.13-.04.25-.06.35-.05.1,0,.18.05.24.12.06.07.12.17.16.32.04.13.06.25.05.34-.01.09-.05.16-.13.22-.08.06-.19.11-.33.16-.48.15-.96.16-1.45.04Z"/>
  <g id="Bowtie">
    <path class="cls-4" d="m56.97,94.51c-.02-.06-.06-.11-.11-.15-.02-.02-.04-.04-.07-.05l-6.95-4.75c-.1-.08-.2-.14-.28-.18-.08-.03-.17-.04-.25-.02-.08.03-.18.11-.28.24-.07.09-.13.18-.16.25-.01.02-.02.04-.03.06-.01.02-.02.05-.02.08,0,.03,0,.06,0,.09,0,.03.01.06.02.09.03.08.1.16.22.24l.6.39,5.96,3.94-5.96,3.95-.6.39c-.12.08-.19.15-.22.23,0,.02-.02.05-.02.08,0,.03,0,.06,0,.09s.01.06.02.09c0,0,0,0,0,.01.03.09.1.2.18.31.09.1.17.17.25.21.08.03.16.03.25,0,.09-.03.2-.09.31-.17l6.95-4.75s.05-.04.07-.06c.05-.05.08-.1.11-.15.03-.08.05-.16.05-.24,0-.07-.02-.16-.05-.24Z"/>
    <g>
      <path class="cls-4" d="m49.59,89.9c-.02-.06-.06-.1-.13-.13-.06-.03-.14-.04-.24-.04-.11,0-.2.01-.26.04-.05.01-.09.04-.11.09,0,0-.01.02-.02.03s0,.02,0,.03c-.01.02-.02.05-.02.08s0,.06,0,.09v9.29s0,.02,0,.03c0,.03,0,.06,0,.09,0,.04.02.07.03.1.02.06.07.1.13.12.06.02.14.03.26.03.1,0,.18,0,.24-.04.06-.03.1-.07.13-.13s.03-.14.03-.25v-9.2c0-.1,0-.18-.03-.24Z"/>
      <polygon class="cls-4" points="55.59 94.75 49.63 98.7 49.63 90.81 55.59 94.75"/>
    </g>
    <path class="cls-4" d="m56.31,94.76c0,.08.02.16.05.24.02.05.06.1.11.15.02.02.04.04.07.06l6.95,4.75c.11.08.22.13.31.17.09.03.17.03.25,0,.08-.03.16-.1.25-.21.08-.11.15-.21.18-.31,0,0,0,0,0-.01,0-.03.02-.06.02-.09s0-.06,0-.09c0-.03,0-.05-.02-.08-.03-.08-.1-.15-.22-.23l-.6-.39-5.96-3.95,5.96-3.94.6-.39c.12-.08.19-.16.22-.24,0-.03.02-.06.02-.09,0-.03,0-.06,0-.09,0-.03,0-.05-.02-.08,0-.02-.01-.04-.03-.06-.03-.07-.09-.16-.16-.25-.1-.13-.2-.21-.28-.24-.08-.02-.17-.01-.25.02-.08.04-.18.1-.28.18l-6.95,4.75s-.05.03-.07.05c-.05.04-.08.09-.11.15-.03.08-.05.17-.05.24Z"/>
    <g>
      <path class="cls-4" d="m63.71,90.15v9.2c0,.1,0,.19.03.25s.06.1.13.13c.06.03.14.04.24.04.11,0,.2,0,.26-.03.06-.02.11-.06.13-.12.01-.03.02-.06.03-.1,0-.03,0-.06,0-.09,0,0,0-.02,0-.03v-9.29s0-.06,0-.09,0-.05-.02-.08c0,0,0-.02,0-.03s0-.02-.02-.03c-.02-.04-.06-.07-.11-.09-.06-.02-.14-.04-.26-.04-.1,0-.18.01-.24.04-.06.03-.1.07-.13.13s-.03.14-.03.24Z"/>
      <polygon class="cls-4" points="57.75 94.76 63.71 98.71 63.71 90.82 57.75 94.76"/>
    </g>
    <path class="cls-4" d="m56.64,97.6c-1.18,0-1.99-.23-2.45-.68-.46-.45-.68-1.24-.68-2.37,0-.8.09-1.43.28-1.89.19-.45.52-.79,1-1,.48-.21,1.1-.32,1.85-.32,1.18,0,1.99.23,2.45.68.45.46.68,1.27.68,2.45,0,.8-.09,1.43-.28,1.89-.19.45-.51.78-.96.96-.46.19-1.08.28-1.89.28Z"/>
  </g>
  <text class="cls-8" transform="translate(28.24 49.29) rotate(-180) scale(1 -1)"><tspan x="0" y="0">;</tspan></text>
  <text class="cls-8" transform="translate(80.02 49.29) rotate(-180) scale(1 -1)"><tspan x="0" y="0">;</tspan></text>
</svg>